<svg width="18" height="18" viewBox="0 0 18 18" fill="none" xmlns="http://www.w3.org/2000/svg">
<path fill-rule="evenodd" clip-rule="evenodd" d="M16.8641 15.823C16.8457 14.4034 16.0183 13.119 14.7333 12.5153V8.49225C14.7786 5.72398 12.7645 3.35117 10.0257 2.94609C8.48444 2.75074 6.93395 3.23057 5.77249 4.26233C4.61102 5.29408 3.95178 6.77721 3.96412 8.33071V12.3846C2.46907 12.8873 1.45848 14.2842 1.44873 15.8615C1.45446 16.1113 1.56205 16.3479 1.74653 16.5164C1.93102 16.6849 2.17637 16.7706 2.42565 16.7538H15.9487C16.1935 16.7518 16.4275 16.6525 16.5992 16.478C16.7709 16.3034 16.8662 16.0678 16.8641 15.823ZM8.57956 4.52303C9.71131 4.29201 10.887 4.58187 11.7816 5.3125C12.6763 6.04313 13.1952 7.13717 13.1949 8.29226V12.1384H5.50264V8.45379C5.46096 6.57786 6.74851 4.93302 8.57956 4.52303ZM3.11058 15.2153C3.38327 14.3007 4.22538 13.6746 5.17981 13.6769H13.1952C14.1488 13.6771 14.9895 14.3022 15.2644 15.2153H3.11058Z" fill="white"/>
<path fill-rule="evenodd" clip-rule="evenodd" d="M10.1181 1.69227V0.923039C10.1181 0.498205 9.77366 0.153809 9.34882 0.153809C8.92399 0.153809 8.57959 0.498205 8.57959 0.923039V1.69227C8.57959 2.1171 8.92399 2.4615 9.34882 2.4615C9.77366 2.4615 10.1181 2.1171 10.1181 1.69227Z" fill="white"/>
<path fill-rule="evenodd" clip-rule="evenodd" d="M10.1181 17.0769V16.3077C10.1181 15.8828 9.77366 15.5385 9.34882 15.5385C8.92399 15.5385 8.57959 15.8828 8.57959 16.3077V17.0769C8.57959 17.5017 8.92399 17.8461 9.34882 17.8461C9.77366 17.8461 10.1181 17.5017 10.1181 17.0769Z" fill="white"/>
<path fill-rule="evenodd" clip-rule="evenodd" d="M3.33332 3.06918C3.47775 3.21481 3.67437 3.29672 3.87947 3.29672C4.08458 3.29672 4.28119 3.21481 4.42562 3.06918C4.72387 2.76915 4.72387 2.2846 4.42562 1.98457L3.87947 1.43841C3.73504 1.29279 3.53842 1.21088 3.33332 1.21088C3.12821 1.21088 2.9316 1.29279 2.78716 1.43841C2.48891 1.73844 2.48891 2.223 2.78716 2.52303L3.33332 3.06918Z" fill="white"/>
<path fill-rule="evenodd" clip-rule="evenodd" d="M1.48717 6.45381L2.2564 6.65381C2.66016 6.74788 3.06583 6.50506 3.17368 6.10476C3.28154 5.70446 3.05276 5.2907 2.6564 5.16919L1.88717 4.96919C1.47732 4.86171 1.05772 5.1059 0.948708 5.51535C0.840696 5.92287 1.08084 6.3414 1.48717 6.45381Z" fill="white"/>
<path fill-rule="evenodd" clip-rule="evenodd" d="M16.464 6.70764L17.2332 6.50764C17.6296 6.38613 17.8583 5.97237 17.7505 5.57207C17.6426 5.17178 17.2369 4.92896 16.8332 5.02302L16.064 5.22302C15.6676 5.34453 15.4388 5.75829 15.5467 6.15859C15.6545 6.55889 16.0602 6.80171 16.464 6.70764Z" fill="white"/>
<path fill-rule="evenodd" clip-rule="evenodd" d="M14.6485 3.06918L15.1947 2.52303C15.4929 2.223 15.4929 1.73844 15.1947 1.43841C15.0502 1.29279 14.8536 1.21088 14.6485 1.21088C14.4434 1.21088 14.2468 1.29279 14.1024 1.43841L13.5562 1.98457C13.258 2.2846 13.258 2.76915 13.5562 3.06918C13.7006 3.21481 13.8973 3.29672 14.1024 3.29672C14.3075 3.29672 14.5041 3.21481 14.6485 3.06918Z" fill="white"/>
</svg>
