<svg width="1206" height="35" viewBox="0 0 1206 35" fill="none" xmlns="http://www.w3.org/2000/svg">
<rect opacity="0.25" x="1121.5" y="0.500008" width="84" height="34" rx="17" stroke="white"/>
<path opacity="0.25" d="M1180.6 18.601C1180.93 18.2691 1180.93 17.7309 1180.6 17.399L1175.19 11.9896C1174.86 11.6576 1174.32 11.6576 1173.99 11.9896C1173.66 12.3215 1173.66 12.8597 1173.99 13.1917L1178.8 18L1173.99 22.8083C1173.66 23.1403 1173.66 23.6785 1173.99 24.0104C1174.32 24.3424 1174.86 24.3424 1175.19 24.0104L1180.6 18.601ZM1145 18.85H1180V17.15H1145V18.85Z" fill="white"/>
<rect opacity="0.25" x="84.5" y="34.5" width="84" height="34" rx="17" transform="rotate(-180 84.5 34.5)" stroke="white"/>
<path opacity="0.25" d="M25.399 16.399C25.067 16.7309 25.067 17.2691 25.399 17.601L30.8083 23.0104C31.1403 23.3424 31.6785 23.3424 32.0104 23.0104C32.3424 22.6785 32.3424 22.1403 32.0104 21.8083L27.2021 17L32.0104 12.1917C32.3424 11.8597 32.3424 11.3215 32.0104 10.9896C31.6785 10.6576 31.1403 10.6576 30.8083 10.9896L25.399 16.399ZM61 16.15L26 16.15L26 17.85L61 17.85L61 16.15Z" fill="white"/>
</svg>
