<svg id="Слой_1" data-name="Слой 1" xmlns="http://www.w3.org/2000/svg" xmlns:xlink="http://www.w3.org/1999/xlink" viewBox="0 0 74 70"><defs><style>.cls-1{fill:url(#Безымянный_градиент_8);}.cls-2{opacity:0.15;}.cls-3,.cls-4{fill:#fff;}.cls-4{fill-rule:evenodd;}</style><linearGradient id="Безымянный_градиент_8" x1="0.93" y1="35.15" x2="72.51" y2="35.15" gradientUnits="userSpaceOnUse"><stop offset="0" stop-color="#8cd23c"/><stop offset="1" stop-color="#417a00"/></linearGradient></defs><path class="cls-1" d="M72.13,6c-10.65,23.24-10.82,37.7-.48,58.1a4.19,4.19,0,0,1-2.75,6h-64a4,4,0,0,1-4-3.59,1.67,1.67,0,0,1,0-.32v-62a1.67,1.67,0,0,1,0-.32,4,4,0,0,1,4-3.59H69.31A4.11,4.11,0,0,1,72.13,6Z"/><g class="cls-2"><circle class="cls-3" cx="8.29" cy="35.15" r="1.07"/><circle class="cls-3" cx="17.94" cy="35.15" r="1.07"/><circle class="cls-3" cx="27.58" cy="35.15" r="1.07"/><circle class="cls-3" cx="37.23" cy="35.15" r="1.07"/><circle class="cls-3" cx="46.88" cy="35.15" r="1.07"/><circle class="cls-3" cx="8.29" cy="25.5" r="1.07"/><circle class="cls-3" cx="17.94" cy="25.5" r="1.07"/><circle class="cls-3" cx="27.58" cy="25.5" r="1.07"/><circle class="cls-3" cx="37.23" cy="25.5" r="1.07"/><circle class="cls-3" cx="46.88" cy="25.5" r="1.07"/><circle class="cls-3" cx="8.29" cy="15.86" r="1.07"/><circle class="cls-3" cx="17.94" cy="15.86" r="1.07"/><circle class="cls-3" cx="27.58" cy="15.86" r="1.07"/><circle class="cls-3" cx="37.23" cy="15.86" r="1.07"/><circle class="cls-3" cx="46.88" cy="15.86" r="1.07"/><circle class="cls-3" cx="8.29" cy="6.21" r="1.07"/><circle class="cls-3" cx="17.94" cy="6.21" r="1.07"/><circle class="cls-3" cx="27.58" cy="6.21" r="1.07"/><circle class="cls-3" cx="37.23" cy="6.21" r="1.07"/><circle class="cls-3" cx="46.88" cy="6.21" r="1.07"/><circle class="cls-3" cx="17.94" cy="64.09" r="1.07"/><circle class="cls-3" cx="27.58" cy="64.09" r="1.07"/><circle class="cls-3" cx="37.23" cy="64.09" r="1.07"/><circle class="cls-3" cx="46.88" cy="64.09" r="1.07"/><circle class="cls-3" cx="56.52" cy="64.09" r="1.07"/><circle class="cls-3" cx="17.94" cy="54.45" r="1.07"/><circle class="cls-3" cx="27.58" cy="54.45" r="1.07"/><circle class="cls-3" cx="37.23" cy="54.45" r="1.07"/><circle class="cls-3" cx="46.88" cy="54.45" r="1.07"/><circle class="cls-3" cx="56.52" cy="54.45" r="1.07"/><circle class="cls-3" cx="17.94" cy="44.8" r="1.07"/><circle class="cls-3" cx="27.58" cy="44.8" r="1.07"/><circle class="cls-3" cx="37.23" cy="44.8" r="1.07"/><circle class="cls-3" cx="46.88" cy="44.8" r="1.07"/><circle class="cls-3" cx="56.52" cy="44.8" r="1.07"/><circle class="cls-3" cx="17.94" cy="35.15" r="1.07"/><circle class="cls-3" cx="27.58" cy="35.15" r="1.07"/><circle class="cls-3" cx="37.23" cy="35.15" r="1.07"/><circle class="cls-3" cx="46.88" cy="35.15" r="1.07"/><circle class="cls-3" cx="56.52" cy="35.15" r="1.07"/></g><path class="cls-4" d="M36.73,45a2.8,2.8,0,1,0-2.79-2.79A2.79,2.79,0,0,0,36.73,45Zm0-2.23a.59.59,0,0,1-.56-.56.56.56,0,1,1,.56.56Z"/><path class="cls-3" d="M39.53,36.49a1.12,1.12,0,0,1,0,2.24H29.23l-1.48,5.44a1.12,1.12,0,0,1-2.16-.6l1.32-4.84H25.17a1.34,1.34,0,0,1-1.3-1L21.32,27.55H18.84a1.12,1.12,0,0,1,0-2.24H22a1.34,1.34,0,0,1,1.3,1l2.54,10.16Z"/><path class="cls-4" d="M38.79,35.38a1.35,1.35,0,0,0,1.32-1.07l1.58-7.38a1.36,1.36,0,0,0-.27-1.12,1.32,1.32,0,0,0-1-.5h-14a1.32,1.32,0,0,0-1,.51,1.31,1.31,0,0,0-.26,1.11l1.58,7.38A1.35,1.35,0,0,0,28,35.38ZM28.68,33.14l-1.2-5.59H39.27l-1.19,5.59Z"/></svg>