<svg id="Слой_1" data-name="Слой 1" xmlns="http://www.w3.org/2000/svg" xmlns:xlink="http://www.w3.org/1999/xlink" viewBox="0 0 74 70"><defs><style>.cls-1{fill:url(#Безымянный_градиент_19);}.cls-2{opacity:0.15;}.cls-3,.cls-4{fill:#fff;}.cls-4{fill-rule:evenodd;}</style><linearGradient id="Безымянный_градиент_19" x1="-1.81" y1="63.7" x2="74.97" y2="6.12" gradientUnits="userSpaceOnUse"><stop offset="0.19" stop-color="#b139fe"/><stop offset="0.8" stop-color="#1e61eb"/></linearGradient></defs><path class="cls-1" d="M72,5.83c-10.65,23.24-10.82,37.7-.48,58.1a4.19,4.19,0,0,1-2.75,6h-64a4,4,0,0,1-4-3.59,1.67,1.67,0,0,1,0-.32V4a1.67,1.67,0,0,1,0-.32,4,4,0,0,1,4-3.59H69.22A4.11,4.11,0,0,1,72,5.83Z"/><g class="cls-2"><circle class="cls-3" cx="8.2" cy="35" r="1.07"/><circle class="cls-3" cx="17.85" cy="35" r="1.07"/><circle class="cls-3" cx="27.5" cy="35" r="1.07"/><circle class="cls-3" cx="37.14" cy="35" r="1.07"/><circle class="cls-3" cx="46.79" cy="35" r="1.07"/><circle class="cls-3" cx="8.2" cy="25.35" r="1.07"/><circle class="cls-3" cx="17.85" cy="25.35" r="1.07"/><circle class="cls-3" cx="27.5" cy="25.35" r="1.07"/><circle class="cls-3" cx="37.14" cy="25.35" r="1.07"/><circle class="cls-3" cx="46.79" cy="25.35" r="1.07"/><circle class="cls-3" cx="8.2" cy="15.71" r="1.07"/><circle class="cls-3" cx="17.85" cy="15.71" r="1.07"/><circle class="cls-3" cx="27.5" cy="15.71" r="1.07"/><circle class="cls-3" cx="37.14" cy="15.71" r="1.07"/><circle class="cls-3" cx="46.79" cy="15.71" r="1.07"/><circle class="cls-3" cx="8.2" cy="6.06" r="1.07"/><circle class="cls-3" cx="17.85" cy="6.06" r="1.07"/><circle class="cls-3" cx="27.5" cy="6.06" r="1.07"/><circle class="cls-3" cx="37.14" cy="6.06" r="1.07"/><circle class="cls-3" cx="46.79" cy="6.06" r="1.07"/><circle class="cls-3" cx="17.85" cy="63.94" r="1.07"/><circle class="cls-3" cx="27.5" cy="63.94" r="1.07"/><circle class="cls-3" cx="37.14" cy="63.94" r="1.07"/><circle class="cls-3" cx="46.79" cy="63.94" r="1.07"/><circle class="cls-3" cx="56.44" cy="63.94" r="1.07"/><circle class="cls-3" cx="17.85" cy="54.29" r="1.07"/><circle class="cls-3" cx="27.5" cy="54.29" r="1.07"/><circle class="cls-3" cx="37.14" cy="54.29" r="1.07"/><circle class="cls-3" cx="46.79" cy="54.29" r="1.07"/><circle class="cls-3" cx="56.44" cy="54.29" r="1.07"/><circle class="cls-3" cx="17.85" cy="44.65" r="1.07"/><circle class="cls-3" cx="27.5" cy="44.65" r="1.07"/><circle class="cls-3" cx="37.14" cy="44.65" r="1.07"/><circle class="cls-3" cx="46.79" cy="44.65" r="1.07"/><circle class="cls-3" cx="56.44" cy="44.65" r="1.07"/><circle class="cls-3" cx="17.85" cy="35" r="1.07"/><circle class="cls-3" cx="27.5" cy="35" r="1.07"/><circle class="cls-3" cx="37.14" cy="35" r="1.07"/><circle class="cls-3" cx="46.79" cy="35" r="1.07"/><circle class="cls-3" cx="56.44" cy="35" r="1.07"/></g><path class="cls-4" d="M28.64,36.52l5,5,5-5,2.84-2.84a3.54,3.54,0,0,0-5-5l-2.84,2.86L30.8,28.7a3.54,3.54,0,0,0-5,5ZM35,27.29a5.52,5.52,0,0,1,7.81,7.81l-1.42,1.42-7.79,7.81-7.81-7.81L24.41,35.1a5.52,5.52,0,1,1,7.81-7.81l1.42,1.42Z"/></svg>