<svg width="184" height="102" viewBox="0 0 184 102" fill="none" xmlns="http://www.w3.org/2000/svg">
<g opacity="0.15">
<circle cx="2" cy="49" r="2" fill="white"/>
<circle cx="16" cy="49" r="2" fill="white"/>
<circle cx="30" cy="49" r="2" fill="white"/>
<circle cx="44" cy="49" r="2" fill="white"/>
<circle cx="2" cy="39" r="2" fill="white"/>
<circle cx="16" cy="39" r="2" fill="white"/>
<circle cx="30" cy="39" r="2" fill="white"/>
<circle cx="44" cy="39" r="2" fill="white"/>
<circle cx="2" cy="29" r="2" fill="white"/>
<circle cx="16" cy="29" r="2" fill="white"/>
<circle cx="30" cy="29" r="2" fill="white"/>
<circle cx="44" cy="29" r="2" fill="white"/>
<circle cx="2" cy="19" r="2" fill="white"/>
<circle cx="16" cy="19" r="2" fill="white"/>
<circle cx="30" cy="19" r="2" fill="white"/>
<circle cx="44" cy="19" r="2" fill="white"/>
</g>
<g opacity="0.15">
<circle cx="132" cy="77" r="2" fill="white"/>
<circle cx="146" cy="77" r="2" fill="white"/>
<circle cx="160" cy="77" r="2" fill="white"/>
<circle cx="174" cy="77" r="2" fill="white"/>
<circle cx="132" cy="67" r="2" fill="white"/>
<circle cx="146" cy="67" r="2" fill="white"/>
<circle cx="160" cy="67" r="2" fill="white"/>
<circle cx="174" cy="67" r="2" fill="white"/>
<circle cx="132" cy="57" r="2" fill="white"/>
<circle cx="146" cy="57" r="2" fill="white"/>
<circle cx="160" cy="57" r="2" fill="white"/>
<circle cx="174" cy="57" r="2" fill="white"/>
<circle cx="132" cy="47" r="2" fill="white"/>
<circle cx="146" cy="47" r="2" fill="white"/>
<circle cx="160" cy="47" r="2" fill="white"/>
<circle cx="174" cy="47" r="2" fill="white"/>
</g>
<g opacity="0.45" filter="url(#filter0_f_6169:2)">
<path d="M17.6118 25.2304L25.7662 25.4079C27.5405 25.4465 29.0126 26.0874 30.1825 27.3305C31.3523 28.5736 31.9001 29.9873 31.8258 31.5715C31.7206 33.8158 30.8278 35.6276 29.1476 37.0069C27.4679 38.3768 25.4482 39.0361 23.0888 38.9848L18.4312 38.8834L16.7172 45.515L12.3711 45.4204L17.6118 25.2304ZM24.8887 29.3108L20.9673 29.2255L19.4502 34.9835L23.7114 35.0763C24.6929 35.0976 25.5385 34.7951 26.2481 34.1686C26.9581 33.5328 27.3348 32.7528 27.3782 31.8287C27.4091 31.1686 27.186 30.5879 26.7088 30.0867C26.2316 29.5855 25.6249 29.3268 24.8887 29.3108ZM39.8209 35.1437C38.7545 35.1205 37.7804 35.5429 36.8989 36.411C36.0174 37.2792 35.5503 38.2743 35.4976 39.3964C35.4543 40.3205 35.7016 41.0905 36.2396 41.7063C36.7874 42.3129 37.5049 42.6259 38.3921 42.6452C39.4397 42.668 40.4083 42.2596 41.298 41.42C42.1876 40.5803 42.6601 39.5712 42.7154 38.3925C42.7587 37.4683 42.5065 36.703 41.9586 36.0964C41.4207 35.4806 40.7081 35.163 39.8209 35.1437ZM46.8417 38.3407C46.743 40.4435 45.7867 42.3011 43.9728 43.9135C42.1683 45.5262 40.157 46.3083 37.9391 46.2601C36.0044 46.2179 34.4024 45.527 33.1331 44.1873C31.8733 42.8479 31.286 41.2681 31.3714 39.4482C31.4709 37.3265 32.4463 35.4646 34.2975 33.8624C36.1583 32.2605 38.1928 31.4835 40.4013 31.5316C42.3172 31.5733 43.8904 32.273 45.1211 33.6307C46.3522 34.979 46.9257 36.549 46.8417 38.3407ZM60.4832 35.735C60.4443 36.5648 60.1224 37.2846 59.5175 37.8944C58.9225 38.4951 58.1853 38.9038 57.306 39.1206C57.3617 39.1407 57.4404 39.1755 57.542 39.2249C57.653 39.2745 57.8273 39.3868 58.0647 39.5619C58.312 39.7278 58.5252 39.9165 58.7042 40.128C58.8931 40.3304 59.0596 40.6077 59.2037 40.9601C59.3572 41.3127 59.4244 41.6918 59.4054 42.0972C59.3448 43.3891 58.7178 44.4704 57.5244 45.3412C56.331 46.212 54.663 46.624 52.5207 46.5774C51.7656 46.561 51.0525 46.4558 50.3814 46.2618C49.7103 46.0679 49.1684 45.839 48.7556 45.5751C48.3428 45.3113 47.9865 45.0534 47.6865 44.8014C47.3964 44.5403 47.1846 44.3233 47.051 44.1504L46.8667 43.8491L49.4558 41.8241C49.526 41.9389 49.6327 42.0828 49.7757 42.2558C49.9286 42.4196 50.2722 42.6489 50.8063 42.9437C51.3503 43.2293 51.9432 43.3791 52.585 43.393C53.4344 43.4115 54.0891 43.2511 54.549 42.9119C55.0089 42.5726 55.2515 42.1343 55.2767 41.5968C55.3139 40.8047 54.6765 40.3943 53.3646 40.3658L51.8499 40.3328L52.524 37.7422L53.968 37.7737C54.6853 37.7893 55.2393 37.6597 55.6301 37.3851C56.0209 37.1104 56.2271 36.742 56.2488 36.28C56.2661 35.9122 56.124 35.6165 55.8228 35.3928C55.5314 35.1599 55.112 35.0375 54.5646 35.0256C54.1021 35.0156 53.6155 35.1182 53.1047 35.3337C52.5943 35.5397 52.1972 35.7481 51.9133 35.9591L51.4868 36.2896L49.8484 34.0593C49.9076 34.0039 49.9869 33.9254 50.0861 33.8238C50.1953 33.7129 50.4306 33.5292 50.7922 33.2728C51.1542 33.0069 51.5381 32.7793 51.9438 32.5899C52.3499 32.391 52.8823 32.2186 53.541 32.0724C54.2096 31.9171 54.8931 31.847 55.5916 31.8622C57.0639 31.8942 58.2587 32.3025 59.1761 33.0871C60.0935 33.8717 60.5292 34.7543 60.4832 35.735ZM82.4196 32.7293L78.7382 46.8648L74.8167 46.7795L78.4981 32.6439L82.4196 32.7293ZM67.6621 36.7691L69.8281 36.8162C71.2815 36.8478 72.4377 37.2742 73.2967 38.0952C74.1557 38.9163 74.558 39.9067 74.5036 41.0666C74.424 42.7639 73.7554 44.1275 72.4979 45.1574C71.2407 46.1778 69.6967 46.668 67.8657 46.6282L61.1979 46.4831L64.8793 32.3475L68.7866 32.4326L67.6621 36.7691ZM69.0417 39.9849L66.8191 39.9365L65.9198 43.4001L68.2415 43.4506C68.7983 43.4627 69.3033 43.2708 69.7565 42.8747C70.2191 42.4789 70.4641 41.9887 70.4915 41.404C70.5105 40.9985 70.3844 40.6654 70.1132 40.4047C69.8425 40.1345 69.4853 39.9945 69.0417 39.9849ZM86.6382 37.0546L85.1762 34.6866C85.2166 34.6308 85.2862 34.5568 85.385 34.4646C85.4937 34.3631 85.7142 34.1933 86.0466 33.9551C86.3889 33.7077 86.7438 33.4936 87.1112 33.3128C87.4792 33.1226 87.9592 32.9584 88.5515 32.8202C89.1536 32.6729 89.7661 32.606 90.389 32.6195C91.7763 32.6497 92.9195 33.0522 93.8185 33.8269C94.7269 34.6018 95.1577 35.4891 95.1108 36.4886C95.0648 37.4693 94.7519 38.2979 94.1723 38.9743C93.602 39.651 92.9222 40.1459 92.1328 40.4591C91.3434 40.7723 90.5558 41.0478 89.77 41.2856C88.9846 41.5139 88.3158 41.7731 87.7637 42.0631C87.212 42.3437 86.9256 42.7103 86.9044 43.163C86.8734 43.8231 87.4055 44.1603 88.5008 44.1747C89.0576 44.1868 89.6206 44.0669 90.1899 43.815C90.7595 43.5537 91.1923 43.2893 91.4883 43.022L91.9194 42.5925L93.6125 44.8665C93.5523 44.9407 93.4628 45.0378 93.3437 45.158C93.2346 45.2689 92.9842 45.4711 92.5926 45.7646C92.2013 46.0487 91.7878 46.304 91.3521 46.5305C90.9163 46.757 90.3403 46.9521 89.6241 47.1159C88.9173 47.2799 88.1864 47.3536 87.4313 47.3372C85.8835 47.3035 84.6586 46.9323 83.7565 46.2236C82.8643 45.5057 82.4428 44.6234 82.4919 43.5767C82.5317 42.728 82.7601 41.9873 83.1771 41.3545C83.5946 40.7122 84.1041 40.223 84.7056 39.8869C85.3165 39.5509 85.9682 39.2536 86.6605 38.9949C87.3533 38.7268 87.9963 38.5143 88.5894 38.3573C89.1924 38.191 89.6884 37.9894 90.0774 37.7525C90.4763 37.5063 90.6835 37.2182 90.6989 36.8882C90.7281 36.2658 90.2423 35.9484 89.2414 35.9361C88.8167 35.9268 88.3872 36.0213 87.9527 36.2195C87.5187 36.4083 87.1888 36.5947 86.9629 36.7785L86.6382 37.0546ZM104.25 47.7032C103.674 47.6907 103.135 47.6082 102.632 47.4556C102.138 47.3033 101.74 47.12 101.439 46.9058C101.137 46.6821 100.879 46.4594 100.662 46.2376C100.456 46.0065 100.309 45.8098 100.222 45.6475L100.09 45.4464L98.0318 53.3731L94.1245 53.2881L99.3936 33.0987L103.301 33.1837L102.886 34.7747C102.927 34.7189 102.982 34.654 103.051 34.58C103.121 34.506 103.288 34.3587 103.554 34.1379C103.829 33.9173 104.126 33.7303 104.444 33.5768C104.763 33.4232 105.181 33.286 105.697 33.1651C106.213 33.0347 106.754 32.9757 107.321 32.988C108.887 33.0221 110.19 33.6452 111.229 34.8571C112.278 36.0693 112.763 37.5147 112.684 39.1931C112.57 41.626 111.662 43.664 109.96 45.3072C108.258 46.9504 106.354 47.749 104.25 47.7032ZM105.77 36.4374C104.685 36.4138 103.686 36.8499 102.775 37.7457C101.864 38.6414 101.377 39.7683 101.313 41.1262C101.271 42.0126 101.52 42.7495 102.059 43.3371C102.599 43.9152 103.275 44.2131 104.087 44.2307C105.191 44.2548 106.193 43.8282 107.094 42.9511C107.995 42.0645 108.478 40.9376 108.542 39.5703C108.583 38.7027 108.334 37.9705 107.795 37.3735C107.257 36.7671 106.582 36.4551 105.77 36.4374ZM134.771 33.8687L131.09 48.0042L127.169 47.9189L130.85 33.7833L134.771 33.8687ZM120.014 37.9085L122.18 37.9556C123.633 37.9872 124.79 38.4136 125.649 39.2346C126.508 40.0557 126.91 41.0461 126.855 42.206C126.776 43.9033 126.107 45.2669 124.85 46.2967C123.593 47.3172 122.049 47.8074 120.218 47.7676L113.55 47.6225L117.231 33.4869L121.138 33.5719L120.014 37.9085ZM121.394 41.1243L119.171 41.0759L118.272 44.5395L120.593 44.59C121.15 44.6021 121.655 44.4101 122.108 44.0141C122.571 43.6183 122.816 43.1281 122.843 42.5434C122.862 42.1379 122.736 41.8048 122.465 41.544C122.194 41.2738 121.837 41.1339 121.394 41.1243ZM142.459 34.036L140.435 41.8219C140.34 42.2446 140.288 42.5455 140.28 42.7247C140.25 43.3659 140.392 43.8645 140.706 44.2206C141.02 44.5673 141.456 44.7467 142.012 44.7588C142.767 44.7752 143.466 44.4789 144.109 43.8699C144.761 43.2517 145.231 42.4124 145.517 41.3519L147.385 34.1432L151.307 34.2285L149.283 42.0144C149.188 42.4371 149.136 42.7381 149.128 42.9172C149.098 43.5585 149.24 44.0571 149.554 44.4132C149.868 44.7599 150.304 44.9393 150.86 44.9514C151.615 44.9678 152.314 44.6715 152.957 44.0625C153.609 43.4443 154.074 42.6048 154.35 41.5442L156.233 34.3357L160.14 34.4208L156.459 48.5563L152.552 48.4713L152.981 46.8807C152.861 47.0102 152.697 47.1813 152.489 47.3939C152.281 47.6064 151.828 47.8798 151.133 48.2139C150.447 48.5388 149.735 48.6932 148.999 48.6772C148.442 48.6651 147.932 48.569 147.468 48.389C147.014 48.2092 146.664 47.9986 146.421 47.7574C146.186 47.5163 145.99 47.276 145.831 47.0366C145.682 46.7879 145.583 46.5781 145.535 46.4071L145.462 46.1365C145.403 46.1919 145.319 46.2797 145.209 46.4C145.109 46.5111 144.878 46.7043 144.516 46.9796C144.163 47.2551 143.792 47.5019 143.404 47.72C143.016 47.9287 142.526 48.1115 141.933 48.2685C141.349 48.4257 140.76 48.4979 140.165 48.4849C138.854 48.4564 137.827 48.0753 137.087 47.3418C136.357 46.5991 136.025 45.5205 136.091 44.106C136.115 43.5874 136.226 42.9432 136.423 42.1735L138.551 33.9509L142.459 34.036Z" fill="white"/>
</g>
<path d="M15.9939 29.6489L24.4312 29.7048C26.2671 29.717 27.8139 30.3571 29.0716 31.6253C30.3292 32.8934 30.9503 34.3477 30.9348 35.9883C30.913 38.3124 30.0602 40.2013 28.3765 41.655C26.6929 43.099 24.6304 43.8129 22.1891 43.7967L17.3699 43.7647L15.8547 50.6542L11.3577 50.6244L15.9939 29.6489ZM23.6753 33.7575L19.6178 33.7306L18.2723 39.713L22.6814 39.7423C23.697 39.749 24.5595 39.4227 25.2688 38.7633C25.9783 38.0941 26.3375 37.2811 26.3465 36.3241C26.353 35.6405 26.0998 35.0431 25.587 34.5319C25.0742 34.0207 24.437 33.7626 23.6753 33.7575ZM39.339 39.5597C38.2356 39.5523 37.2449 40.0048 36.3672 40.9169C35.4894 41.8291 35.045 42.8662 35.0341 44.0283C35.0251 44.9853 35.3106 45.7782 35.8906 46.4071C36.4805 47.0262 37.2345 47.3388 38.1524 47.3449C39.2364 47.3521 40.222 46.9143 41.1092 46.0315C41.9965 45.1487 42.4459 44.0969 42.4574 42.8763C42.4664 41.9193 42.1759 41.1312 41.586 40.5121C41.006 39.8832 40.257 39.5657 39.339 39.5597ZM46.7213 42.758C46.7008 44.9357 45.7841 46.873 43.9712 48.57C42.168 50.2671 40.119 51.108 37.8241 51.0928C35.8222 51.0795 34.1392 50.3897 32.7751 49.0232C31.4207 47.6568 30.7524 46.0312 30.7701 44.1465C30.7908 41.9493 31.7271 40.0073 33.579 38.3203C35.4407 36.6334 37.514 35.7975 39.7992 35.8126C41.7815 35.8258 43.4352 36.5252 44.7601 37.911C46.0851 39.287 46.7388 40.9027 46.7213 42.758ZM60.7239 39.8479C60.7158 40.7072 60.4109 41.4571 59.8091 42.0977C59.2172 42.7285 58.4709 43.1631 57.5702 43.4012C57.6286 43.4212 57.7113 43.4559 57.8183 43.5054C57.935 43.555 58.1195 43.6686 58.3717 43.846C58.6338 44.0138 58.8615 44.2057 59.0548 44.4218C59.2579 44.6283 59.4408 44.9127 59.6034 45.2751C59.7758 45.6376 59.86 46.0288 59.8561 46.4487C59.8435 47.7865 59.2371 48.9153 58.037 49.8351C56.8369 50.7549 55.1284 51.2075 52.9117 51.1928C52.1305 51.1876 51.3892 51.0899 50.6878 50.8997C49.9864 50.7095 49.4173 50.4811 48.9803 50.2146C48.5434 49.948 48.1649 49.6867 47.8451 49.4307C47.5351 49.1649 47.3076 48.9437 47.1628 48.7669L46.9606 48.458L49.559 46.3218C49.636 46.4395 49.7518 46.5868 49.9064 46.7636C50.0709 46.9307 50.4349 47.1626 50.9985 47.4593C51.572 47.7463 52.1908 47.892 52.8548 47.8964C53.7337 47.9023 54.4044 47.726 54.8667 47.3678C55.3291 47.0095 55.5629 46.5521 55.5682 45.9954C55.5759 45.1752 54.9011 44.7605 53.5437 44.7515L51.9763 44.7411L52.573 42.0497L54.0671 42.0596C54.8092 42.0646 55.377 41.9218 55.7704 41.6315C56.1638 41.3411 56.3627 40.9567 56.3672 40.4782C56.3708 40.0973 56.2125 39.7935 55.8924 39.5668C55.5821 39.3304 55.1438 39.2103 54.5774 39.2065C54.0989 39.2034 53.5997 39.3172 53.0799 39.5482C52.5603 39.7693 52.1578 39.9913 51.8725 40.214L51.4443 40.5627L49.664 38.2804C49.7232 38.2222 49.8021 38.1397 49.9007 38.0329C50.0092 37.9165 50.2455 37.7227 50.6094 37.4517C50.9733 37.1709 51.3614 36.9293 51.7735 36.727C52.1856 36.5148 52.7294 36.328 53.4048 36.1665C54.09 35.9952 54.7939 35.912 55.5166 35.9168C57.04 35.9269 58.2911 36.3307 59.27 37.1282C60.2488 37.9257 60.7335 38.8323 60.7239 39.8479ZM83.2867 36.3938L80.0281 51.0795L75.9706 51.0526L79.2291 36.3669L83.2867 36.3938ZM68.1859 40.8055L70.4271 40.8204C71.9309 40.8303 73.1428 41.2534 74.0627 42.0896C74.9826 42.9258 75.4369 43.9444 75.4256 45.1456C75.409 46.9033 74.7706 48.3249 73.5104 49.4103C72.2502 50.4859 70.6728 51.0175 68.7784 51.0049L61.8791 50.9592L65.1376 36.2735L69.1805 36.3003L68.1859 40.8055ZM69.7369 44.1118L67.4371 44.0965L66.6415 47.6948L69.0438 47.7107C69.6199 47.7146 70.1346 47.508 70.5877 47.0911C71.0507 46.6742 71.285 46.1631 71.2907 45.5576C71.2946 45.1377 71.1514 44.795 70.8609 44.5294C70.5705 44.254 70.1958 44.1148 69.7369 44.1118ZM87.8156 40.8038L86.2124 38.3761C86.2521 38.3178 86.3211 38.2401 86.4197 38.1431C86.5282 38.0364 86.7496 37.8572 87.084 37.6055C87.4283 37.3441 87.7869 37.117 88.1598 36.9241C88.5328 36.7215 89.0228 36.5441 89.6297 36.3919C90.2465 36.2299 90.8771 36.1511 91.5217 36.1554C92.9572 36.1649 94.1546 36.5635 95.1141 37.3511C96.0832 38.1388 96.563 39.0502 96.5532 40.0853C96.5436 41.1008 96.2523 41.9632 95.6792 42.6723C95.1159 43.3815 94.4322 43.9043 93.6282 44.2408C92.8242 44.5772 92.0206 44.8747 91.2174 45.133C90.4142 45.3816 89.7329 45.6603 89.1733 45.9691C88.6138 46.2681 88.3319 46.652 88.3274 47.1207C88.321 47.8043 88.8842 48.1449 90.0171 48.1427C90.5933 48.1465 91.1707 48.0136 91.7494 47.744C92.3283 47.4646 92.7655 47.1843 93.0611 46.9031L93.4902 46.4518L95.3287 48.7785C95.2694 48.8562 95.1805 48.9582 95.0622 49.0843C94.9536 49.2008 94.7026 49.414 94.309 49.7239C93.9156 50.024 93.498 50.2947 93.0562 50.5359C92.6145 50.7771 92.0265 50.9881 91.2924 51.1688C90.568 51.3495 89.8152 51.4373 89.0339 51.4321C87.4324 51.4215 86.1516 51.0566 85.1916 50.3373C84.2414 49.6084 83.7714 48.7019 83.7816 47.618C83.7898 46.7391 83.9973 45.969 84.4039 45.3076C84.8107 44.6364 85.3184 44.1222 85.9273 43.7649C86.5459 43.4077 87.2081 43.0898 87.9139 42.8113C88.6198 42.523 89.2763 42.2929 89.8834 42.1212C90.5003 41.9397 91.0053 41.7233 91.3983 41.472C91.8012 41.211 92.0042 40.9096 92.0075 40.5679C92.0135 39.9233 91.499 39.6026 90.4637 39.6055C90.0243 39.6025 89.5838 39.7071 89.1424 39.919C88.701 40.1211 88.3671 40.3191 88.1406 40.5129L87.8156 40.8038ZM106.436 51.5474C105.84 51.5435 105.279 51.4665 104.753 51.3166C104.237 51.1667 103.819 50.9832 103.499 50.7663C103.179 50.5395 102.902 50.3131 102.67 50.0869C102.448 49.8511 102.289 49.6498 102.192 49.4832L102.048 49.2771L100.227 57.5123L96.1843 57.4855L100.85 36.5102L104.893 36.5369L104.525 38.1898C104.565 38.1315 104.619 38.0635 104.689 37.9858C104.758 37.9081 104.925 37.753 105.191 37.5204C105.467 37.2878 105.766 37.0896 106.09 36.9258C106.414 36.7619 106.84 36.6133 107.369 36.4801C107.898 36.3371 108.455 36.2676 109.041 36.2715C110.662 36.2822 112.033 36.9065 113.154 38.1445C114.285 39.3824 114.842 40.8705 114.826 42.6087C114.802 45.1282 113.942 47.2514 112.246 48.9785C110.55 50.7056 108.614 51.5619 106.436 51.5474ZM107.571 39.8653C106.448 39.8579 105.433 40.3248 104.526 41.266C103.618 42.2073 103.158 43.381 103.145 44.7872C103.136 45.7052 103.422 46.4639 104.002 47.0635C104.583 47.6533 105.293 47.9509 106.133 47.9565C107.275 47.9641 108.295 47.507 109.193 46.5852C110.09 45.6536 110.546 44.4798 110.559 43.0639C110.567 42.1655 110.282 41.4116 109.701 40.8023C109.121 40.1832 108.411 39.8709 107.571 39.8653ZM137.455 36.7527L134.197 51.4384L130.139 51.4115L133.398 36.7258L137.455 36.7527ZM122.355 41.1645L124.596 41.1793C126.1 41.1893 127.312 41.6124 128.231 42.4485C129.151 43.2847 129.606 44.3034 129.594 45.5045C129.578 47.2622 128.939 48.6838 127.679 49.7692C126.419 50.8449 124.842 51.3764 122.947 51.3639L116.048 51.3182L119.306 36.6325L123.349 36.6592L122.355 41.1645ZM123.906 44.4707L121.606 44.4555L120.81 48.0538L123.212 48.0697C123.789 48.0735 124.303 47.8669 124.756 47.45C125.219 47.0332 125.454 46.522 125.459 45.9166C125.463 45.4967 125.32 45.1539 125.03 44.8883C124.739 44.6129 124.365 44.4737 123.906 44.4707ZM145.409 36.8054L143.619 44.8943C143.537 45.3332 143.495 45.6454 143.493 45.831C143.487 46.495 143.653 47.0088 143.991 47.3724C144.33 47.7262 144.787 47.905 145.363 47.9088C146.145 47.914 146.856 47.5965 147.496 46.9562C148.147 46.3062 148.6 45.4302 148.854 44.3284L150.507 36.8392L154.564 36.8661L152.774 44.955C152.692 45.3939 152.65 45.7061 152.648 45.8916C152.642 46.5557 152.808 47.0695 153.146 47.4331C153.485 47.7869 153.942 47.9657 154.518 47.9695C155.3 47.9747 156.011 47.6571 156.651 47.0168C157.302 46.3668 157.75 45.4909 157.995 44.389L159.662 36.8999L163.705 36.9267L160.446 51.6124L156.403 51.5856L156.785 49.9328C156.667 50.0687 156.504 50.2483 156.297 50.4716C156.089 50.6948 155.633 50.9848 154.926 51.3414C154.229 51.6884 153.5 51.8593 152.739 51.8543C152.162 51.8504 151.631 51.759 151.144 51.58C150.668 51.4011 150.298 51.1887 150.037 50.9428C149.786 50.697 149.573 50.4514 149.399 50.2061C149.236 49.9511 149.126 49.7356 149.069 49.5594L148.983 49.2805C148.924 49.3387 148.84 49.4309 148.732 49.5572C148.633 49.6737 148.402 49.8772 148.037 50.1678C147.683 50.4584 147.31 50.7196 146.917 50.9514C146.524 51.1734 146.024 51.3703 145.417 51.5421C144.82 51.7139 144.213 51.7978 143.598 51.7937C142.241 51.7847 141.165 51.4065 140.371 50.659C139.588 49.9019 139.202 48.7909 139.216 47.3261C139.221 46.789 139.311 46.1207 139.484 45.321L141.366 36.7786L145.409 36.8054Z" fill="white"/>
<path d="M37.0995 70.5527L39.9032 70.5684C40.454 70.5715 40.9178 70.4012 41.2948 70.0576C41.6776 69.7082 41.8703 69.2991 41.8729 68.8304C41.8749 68.473 41.7419 68.1646 41.4738 67.9053C41.2057 67.6401 40.8637 67.5064 40.4477 67.504L37.7583 67.489L37.0995 70.5527ZM39.5996 72.9925L33.878 72.9605L36.6116 60.3721L45.3478 60.421L44.8244 62.8527L38.7952 62.8189L38.2992 65.0662L40.9622 65.0811C42.0286 65.0871 42.9085 65.4377 43.6019 66.133C44.2953 66.8224 44.6394 67.63 44.6343 68.5558C44.6273 69.8038 44.138 70.8587 43.1663 71.7205C42.1947 72.5764 41.0058 73.0004 39.5996 72.9925ZM54.7191 69.4736L48.312 69.4377C48.3678 69.9419 48.5735 70.3562 48.9291 70.6804C49.2906 70.9989 49.7584 71.1597 50.3327 71.1629C50.7897 71.1655 51.2267 71.0742 51.6438 70.889C52.0608 70.7038 52.3636 70.518 52.5522 70.3316L52.8438 70.0432L53.7749 71.7183L53.607 71.8756C53.5363 71.9514 53.3745 72.0764 53.1215 72.2508C52.8686 72.4252 52.604 72.5819 52.3279 72.721C52.0517 72.8542 51.6966 72.9723 51.2624 73.0754C50.8282 73.1784 50.3826 73.2287 49.9256 73.2261C48.8123 73.2199 47.8565 72.8249 47.0582 72.0411C46.2657 71.2573 45.8723 70.344 45.8782 69.301C45.8863 67.8479 46.4352 66.6088 47.525 65.5836C48.6206 64.5585 49.8832 64.0499 51.3129 64.0579C52.4144 64.0641 53.3296 64.3944 54.0583 65.0489C54.7871 65.6975 55.1488 66.5199 55.1432 67.5159C55.1415 67.8148 55.1045 68.1398 55.0323 68.4909L54.7191 69.4736ZM51.0112 66.1305C50.5073 66.1277 50.0436 66.2745 49.6201 66.571C49.2024 66.8675 48.8721 67.2553 48.6292 67.7344L52.7512 67.7575C52.7538 67.2887 52.5977 66.9011 52.2831 66.5947C51.9742 66.2882 51.5503 66.1335 51.0112 66.1305ZM56.1704 69.2883C56.1783 67.8821 56.7271 66.6664 57.8168 65.6412C58.9065 64.6161 60.1955 64.1076 61.6838 64.116C62.1408 64.1185 62.5711 64.1854 62.9747 64.3166C63.3841 64.4419 63.7202 64.5932 63.9829 64.7705C64.2456 64.9418 64.4761 65.116 64.6743 65.2929C64.8726 65.4698 65.0182 65.6229 65.1112 65.7524L65.242 65.9377L63.4675 67.3516C63.4211 67.2693 63.3484 67.1693 63.2494 67.0515C63.1563 66.9338 62.9345 66.7773 62.5841 66.582C62.2395 66.3808 61.8709 66.2792 61.4783 66.277C60.7576 66.2729 60.1027 66.5535 59.5136 67.1185C58.9304 67.6836 58.6366 68.3558 58.6322 69.1351C58.6291 69.6859 58.8082 70.1556 59.1693 70.5444C59.5362 70.9332 59.9892 71.1291 60.5283 71.1321C60.9267 71.1343 61.3199 71.034 61.7077 70.8311C62.1015 70.6282 62.3956 70.4189 62.5902 70.2032L62.8731 69.8971L64.0243 71.512C63.9889 71.5587 63.9357 71.6258 63.8649 71.7133C63.8 71.7949 63.6498 71.9376 63.4143 72.1414C63.1788 72.3393 62.9288 72.5166 62.6642 72.6734C62.3997 72.8242 62.0532 72.9658 61.6247 73.0982C61.1963 73.2247 60.7565 73.2867 60.3053 73.2842C59.1276 73.2776 58.1425 72.8736 57.3501 72.0723C56.5577 71.271 56.1645 70.343 56.1704 69.2883ZM69.6456 64.3363L69.429 65.3459C69.4998 65.2642 69.6029 65.1593 69.7384 65.0312C69.8797 64.8972 70.1796 64.7202 70.6378 64.5001C71.0961 64.28 71.5655 64.1713 72.0459 64.174C72.8955 64.1787 73.5826 64.4345 74.1071 64.9414C74.6316 65.4482 74.8914 66.1469 74.8864 67.0376C74.8846 67.3598 74.8475 67.6995 74.7752 68.0565L73.6655 73.1832L71.2397 73.1696L72.2864 68.315C72.3226 68.1336 72.3411 67.9667 72.342 67.8143C72.3442 67.4159 72.2317 67.0989 72.0045 66.8632C71.7832 66.6276 71.4674 66.5087 71.0573 66.5064C70.5065 66.5033 70.0132 66.6968 69.5774 67.087C69.1417 67.4712 68.8517 67.994 68.7073 68.6553L67.7242 73.1499L65.2984 73.1363L67.2198 64.3227L69.6456 64.3363ZM78.8212 64.3877L85.9315 64.4274L84.01 73.2411L81.5843 73.2275L83.019 66.5733L80.6812 66.5602L80.5726 67.1045C80.2059 68.7607 79.7943 70.068 79.3378 71.0264C78.8813 71.9789 78.406 72.6267 77.9118 72.9696C77.4178 73.3067 76.8338 73.4734 76.16 73.4696C75.9432 73.4684 75.7266 73.4408 75.5101 73.3868C75.2877 73.3387 75.1209 73.2968 75.0098 73.261L74.8344 73.1897L75.2947 71.0301C75.4643 71.0897 75.637 71.1199 75.8128 71.1209C76.1702 71.1229 76.4695 71.0338 76.7108 70.8535C76.9579 70.6674 77.2151 70.2557 77.4823 69.6185C77.7496 68.9755 78.0185 68.0424 78.289 66.8193L78.8212 64.3877ZM91.6804 64.2838C92.0378 64.2858 92.3715 64.3346 92.6815 64.4301C92.9975 64.5197 93.2488 64.6354 93.4355 64.7771C93.6281 64.9129 93.7914 65.0486 93.9254 65.1841C94.0653 65.3138 94.1672 65.4257 94.2311 65.5198L94.3183 65.6521L94.5798 64.4758L97.0055 64.4894L95.0841 73.303L92.6583 73.2895L92.8572 72.2974C92.8336 72.3324 92.8011 72.3762 92.7598 72.4287C92.7186 72.4753 92.6155 72.5685 92.4506 72.7082C92.2858 72.842 92.1065 72.9612 91.9125 73.0655C91.7244 73.1641 91.4691 73.2535 91.1463 73.3337C90.8295 73.414 90.4982 73.4531 90.1525 73.4512C89.1799 73.4458 88.3529 73.0661 87.6715 72.3123C86.9902 71.5585 86.6524 70.6601 86.6583 69.6171C86.6667 68.1054 87.1778 66.8368 88.1913 65.8112C89.2107 64.7856 90.3738 64.2765 91.6804 64.2838ZM91.0259 71.3027C91.7114 71.3066 92.3253 71.0258 92.8675 70.4605C93.4098 69.8893 93.6833 69.1848 93.688 68.3469C93.691 67.7961 93.5119 67.3439 93.1506 66.9903C92.7952 66.6309 92.3655 66.4498 91.8616 66.447C91.1761 66.4432 90.5652 66.7181 90.0289 67.2717C89.4926 67.8254 89.222 68.5299 89.2172 69.3854C89.2142 69.9244 89.3875 70.3795 89.7369 70.7506C90.0923 71.1159 90.522 71.2999 91.0259 71.3027ZM108.408 73.3776L109.464 68.5231C109.512 68.2597 109.536 68.0752 109.537 67.9698C109.539 67.5713 109.438 67.2631 109.235 67.0452C109.031 66.8273 108.756 66.7173 108.41 66.7154C107.941 66.7128 107.513 66.9067 107.124 67.2971C106.741 67.6816 106.474 68.2046 106.324 68.8659L105.35 73.3605L102.915 73.3468L103.971 68.4923C104.019 68.2289 104.043 68.0445 104.044 67.939C104.046 67.5406 103.945 67.2324 103.741 67.0145C103.543 66.7966 103.269 66.6866 102.917 66.6846C102.448 66.682 102.02 66.8759 101.631 67.2663C101.248 67.6509 100.984 68.1739 100.84 68.8352L99.8565 73.3297L97.4307 73.3162L99.3521 64.5026L101.778 64.5161L101.561 65.5081C101.632 65.4265 101.727 65.3215 101.844 65.1933C101.968 65.0592 102.239 64.8849 102.656 64.6705C103.079 64.456 103.519 64.3501 103.976 64.3526C104.322 64.3546 104.638 64.412 104.924 64.5249C105.217 64.6321 105.439 64.7593 105.59 64.9066C105.748 65.0481 105.876 65.1953 105.974 65.3482C106.079 65.4953 106.149 65.6246 106.183 65.7361L106.235 65.8946C106.27 65.8596 106.318 65.8072 106.377 65.7372C106.441 65.6614 106.58 65.5391 106.792 65.3704C107.01 65.1958 107.236 65.0418 107.471 64.9083C107.706 64.769 108.003 64.6476 108.361 64.5442C108.725 64.4349 109.094 64.3813 109.469 64.3834C110.284 64.3879 110.927 64.6171 111.399 65.071C111.871 65.5248 112.105 66.1882 112.1 67.0612C112.098 67.3835 112.046 67.7846 111.944 68.2645L110.834 73.3912L108.408 73.3776ZM116.328 70.0908L115.606 73.4179L113.18 73.4043L115.102 64.5907L117.528 64.6043L116.788 67.9312L120.207 67.9504L120.947 64.6234L123.381 64.637L121.46 73.4506L119.025 73.437L119.747 70.1099L116.328 70.0908ZM129.232 66.744C128.57 66.7403 127.976 67.0124 127.452 67.5602C126.927 68.1081 126.663 68.7306 126.659 69.4279C126.656 70.0021 126.829 70.4777 127.178 70.8547C127.534 71.2258 127.987 71.4129 128.538 71.416C129.188 71.4196 129.778 71.1563 130.309 70.6261C130.839 70.0958 131.106 69.4645 131.11 68.7321C131.113 68.1579 130.937 67.6852 130.582 67.3141C130.233 66.9371 129.782 66.7471 129.232 66.744ZM133.668 68.6585C133.661 69.9651 133.115 71.1281 132.032 72.1475C130.954 73.1668 129.726 73.6727 128.349 73.665C127.148 73.6582 126.137 73.2453 125.315 72.4263C124.499 71.6073 124.095 70.6323 124.101 69.5015C124.108 68.1831 124.666 67.0173 125.773 66.0039C126.886 64.9906 128.128 64.4878 129.499 64.4955C130.689 64.5021 131.682 64.9208 132.48 65.7514C133.279 66.5762 133.675 67.5453 133.668 68.6585ZM138.065 69.94L136.087 69.9289L137.596 60.9372L140.479 60.9533L138.065 69.94ZM135.106 72.4811C135.108 72.1119 135.271 71.7759 135.595 71.4731C135.919 71.1643 136.292 71.0111 136.714 71.0135C137.1 71.0157 137.416 71.1375 137.661 71.3791C137.912 71.6208 138.036 71.9115 138.034 72.2514C138.032 72.6498 137.869 72.9946 137.545 73.2858C137.221 73.5711 136.848 73.7125 136.426 73.7102C136.039 73.708 135.721 73.5832 135.47 73.3357C135.226 73.0882 135.104 72.8033 135.106 72.4811Z" fill="url(#paint0_linear_6169:2)"/>
<defs>
<filter id="filter0_f_6169:2" x="4.08594" y="17.137" width="164.34" height="45.5671" filterUnits="userSpaceOnUse" color-interpolation-filters="sRGB">
<feFlood flood-opacity="0" result="BackgroundImageFix"/>
<feBlend mode="normal" in="SourceGraphic" in2="BackgroundImageFix" result="shape"/>
<feGaussianBlur stdDeviation="4" result="effect1_foregroundBlur_6169:2"/>
</filter>
<linearGradient id="paint0_linear_6169:2" x1="33.0736" y1="72.204" x2="190.001" y2="73.0822" gradientUnits="userSpaceOnUse">
<stop stop-color="#8CD23C"/>
<stop offset="1" stop-color="#417A00"/>
</linearGradient>
</defs>
</svg>
