<?xml version="1.0" encoding="utf-8"?>
<!-- Generator: Adobe Illustrator 24.3.0, SVG Export Plug-In . SVG Version: 6.00 Build 0)  -->
<svg version="1.1" id="Слой_1" xmlns="http://www.w3.org/2000/svg" xmlns:xlink="http://www.w3.org/1999/xlink" x="0px" y="0px"
	 viewBox="0 0 420 150" style="enable-background:new 0 0 420 150;" xml:space="preserve">
<style type="text/css">
	.st0{fill:url(#SVGID_1_);}
	.st1{fill:#FFFFFF;}
	.st2{opacity:0.35;fill:#FFFFFF;enable-background:new    ;}
	.st3{opacity:0.15;}
</style>
<linearGradient id="SVGID_1_" gradientUnits="userSpaceOnUse" x1="189.3706" y1="927.3201" x2="229.8406" y2="776.2302" gradientTransform="matrix(1 0 0 1 0 -775.34)">
	<stop  offset="0" style="stop-color:#B139FE"/>
	<stop  offset="1" style="stop-color:#1E61EB"/>
</linearGradient>
<path class="st0" d="M0,0h420v150c-164-26.3-256-27-420,0L0,0z"/>
<g>
	<path class="st1" d="M129.5,66.7c4.2,0,7.2,1.8,8.8,5.4c0.4,1,0.7,2.1,0.7,3.2c0.1,1,0,2.1-0.4,3.1h-14c-0.1,1.2,0.5,2.3,1.4,3.1
		c1,0.8,2.3,1.2,3.6,1.1c2.1,0,4.1-0.5,6-1.4l2.7,2.9c-2.5,2-5.5,3-8.7,3.1c-2.7,0.1-5.4-0.9-7.4-2.9c-1.9-2-2.9-4.6-2.8-7.4
		c-0.1-2.7,0.9-5.3,2.8-7.3C124.1,67.7,126.8,66.6,129.5,66.7z M129.5,71.4c-1.2,0-2.4,0.4-3.3,1.2c-0.8,0.7-1.3,1.6-1.4,2.7h9.2
		c0-0.6-0.2-1.1-0.5-1.6C132.8,72.1,131.2,71.2,129.5,71.4z M161.3,87h-3.4l-0.3-2.8c-1.6,2-4.1,3.2-6.6,3.1c-2.7,0.1-5.2-1-7-3
		c-3.7-4.2-3.7-10.4,0-14.6c1.8-2,4.3-3.1,7-3c2.6-0.1,5.1,1.1,6.6,3.2l0.3-2.8h3.4L161.3,87z M151.5,82.3c2.9,0,5.2-2.4,5.2-5.2
		c0,0,0-0.1,0-0.1c0.1-1.4-0.5-2.8-1.6-3.8c-0.9-1-2.2-1.5-3.6-1.5c-3,0.2-5.3,2.7-5.1,5.7c0.1,1.3,0.6,2.5,1.5,3.5
		C148.8,81.8,150.1,82.3,151.5,82.3z M209.5,58.8c4-0.1,7.9,1.6,10.6,4.6l-3.6,3.3c-1.9-1.9-4.4-2.8-7-2.8c-2.3-0.1-4.6,0.9-6.2,2.6
		c-3.3,3.7-3.3,9.3,0,13c1.6,1.7,3.9,2.6,6.2,2.6c1.8,0,3.5-0.5,5-1.6v-4.8h-5.1v-4.2H220v11.1c-2.7,3-6.5,4.7-10.6,4.6
		c-3.8,0.1-7.4-1.4-10.1-4.2c-5.5-5.6-5.5-14.6,0-20.2C202,60.2,205.7,58.7,209.5,58.8z M232.4,66.8c5.7,0,10.2,4.6,10.2,10.2
		s-4.6,10.2-10.2,10.2c-5.7,0-10.2-4.6-10.2-10.2c0-2.7,1.1-5.3,3-7.2C227,67.8,229.6,66.7,232.4,66.8L232.4,66.8z M236,73.2
		c-0.9-1-2.2-1.5-3.6-1.5c-3,0.2-5.3,2.7-5.1,5.7c0.1,1.3,0.6,2.5,1.5,3.5c2,2,5.3,2,7.3-0.1c1-1,1.5-2.4,1.5-3.8
		C237.6,75.6,237,74.2,236,73.2L236,73.2z"/>
	<path class="st1" d="M165.8,87h-1v1h1V87z M165.8,59v-1h-1v1H165.8z M171,59h1v-1h-1V59z M171,87v1h1v-1H171z M166.8,87V59h-2v28
		H166.8z M165.8,60h5.1v-2h-5.1V60z M170,59v28h2V59H170z M171,86h-5.1v2h5.1V86z M187.5,87l-0.8,0.6L187,88h0.5V87z M184.1,81.7
		l0.8-0.5l0,0L184.1,81.7z M182.4,79.7l-0.6,0.8l0,0L182.4,79.7z M178.9,79.2v-1h-1v1H178.9z M178.9,87v1h1v-1H178.9z M173.8,87h-1
		v1h1V87z M173.8,59v-1h-1v1H173.8z M178.9,59h1v-1h-1V59z M178.9,74.3h-1v1h1V74.3z M182.2,73.8l-0.6-0.8l0,0L182.2,73.8z
		 M183.9,71.8l-0.8-0.6l0,0L183.9,71.8z M187,67v-1h-0.5l-0.3,0.4L187,67z M192.6,67l0.8,0.6l1-1.6h-1.8L192.6,67z M188.2,73.8
		l-0.8-0.6l0,0L188.2,73.8z M185.3,76.7l-0.4-0.9l-2.5,1l2.6,0.8L185.3,76.7z M188.3,79.7l0.8-0.6l0,0L188.3,79.7z M193.1,87v1h1.9
		l-1-1.6L193.1,87z M188.3,86.5l-3.4-5.3l-1.7,1.1l3.4,5.3L188.3,86.5z M184.9,81.1c-0.5-0.9-1.2-1.7-2-2.3l-1.1,1.7
		c0.6,0.5,1.1,1.1,1.4,1.7L184.9,81.1z M182.9,78.9c-0.8-0.5-1.7-0.8-2.7-0.7v2c0.5,0,1,0.1,1.5,0.3L182.9,78.9z M180.2,78.2h-1.4v2
		h1.4V78.2z M177.8,79.2V87h2v-7.8L177.8,79.2z M178.8,86h-5.1v2h5.1V86z M174.7,87V59h-2v28H174.7z M173.7,60h5.1v-2h-5.1V60z
		 M177.8,59v15.3h2V59L177.8,59z M178.8,75.3h1.2v-2h-1.2V75.3z M180,75.3c0.9,0,1.9-0.2,2.7-0.7l-1.1-1.6c-0.5,0.3-1,0.4-1.5,0.3
		L180,75.3z M182.7,74.6c0.8-0.6,1.4-1.4,1.9-2.3l-1.7-1.1c-0.3,0.6-0.8,1.2-1.3,1.7L182.7,74.6z M184.6,72.3l3.1-4.8l-1.7-1.1
		l-3.1,4.8L184.6,72.3z M186.9,68h5.7v-2H187L186.9,68z M191.7,66.5l-4.5,6.8l1.7,1.1l4.5-6.8L191.7,66.5z M187.2,73.2
		c-0.6,1-1.4,1.9-2.4,2.5l0.8,1.8c1.4-0.8,2.5-1.9,3.3-3.3L187.2,73.2z M185,77.6c0.4,0.2,0.8,0.4,1.1,0.7c0.6,0.6,1,1.2,1.5,1.9
		l1.7-1.1c-0.5-0.8-1.1-1.5-1.7-2.2c-0.5-0.5-1.1-0.9-1.8-1.2L185,77.6z M187.5,80.2l4.8,7.3l1.7-1.1l-4.8-7.3L187.5,80.2z
		 M193.2,86h-5.6v2h5.6V86z"/>
	<path class="st2" d="M243.9,65.4c0.4,0,0.8,0.1,1.1,0.4c0.5,0.5,0.6,1.3,0.1,1.8c0,0-0.1,0.1-0.1,0.1c-0.6,0.5-1.5,0.5-2.1,0
		c-0.5-0.5-0.6-1.3-0.1-1.8c0,0,0.1-0.1,0.1-0.1C243.1,65.6,243.5,65.4,243.9,65.4z M252.7,57.9c1.5,0,3,0.7,3.9,1.8l-1.5,1.6
		c-0.6-0.6-1.5-1-2.4-1c-0.7,0-1.3,0.3-1.8,0.7c-0.5,0.5-0.8,1.2-0.8,1.9c0,0.7,0.2,1.4,0.8,1.9c0.5,0.5,1.1,0.8,1.8,0.7
		c0.9,0,1.8-0.4,2.4-1l1.5,1.6c-1.8,2.1-5.1,2.4-7.2,0.5c-1.1-1-1.8-2.4-1.8-3.8C247.6,60.2,249.9,57.9,252.7,57.9
		C252.7,57.9,252.7,57.9,252.7,57.9L252.7,57.9z M263.9,57.9c2.8,0,5.1,2.3,5.1,5.1c0,2.8-2.3,5.1-5.1,5.1c-1.4,0-2.7-0.5-3.6-1.5
		c-2-2-2-5.3,0-7.3C261.2,58.4,262.5,57.9,263.9,57.9L263.9,57.9z M265.7,61.1c-0.5-0.5-1.1-0.8-1.8-0.8c-0.7,0-1.3,0.3-1.8,0.8
		c-0.5,0.5-0.8,1.2-0.8,1.9c0,0.7,0.3,1.4,0.8,1.9c0.5,0.5,1.1,0.8,1.8,0.7c0.7,0,1.3-0.3,1.8-0.7c0.5-0.5,0.8-1.2,0.8-1.9
		C266.5,62.3,266.2,61.6,265.7,61.1L265.7,61.1z M284.3,57.9c1.2-0.1,2.4,0.4,3.2,1.3c0.8,1,1.2,2.2,1.1,3.5V68h-2.5v-5.1
		c0-1.7-0.7-2.6-2.2-2.6c-0.7,0-1.3,0.2-1.8,0.7c-0.5,0.6-0.7,1.3-0.6,2.1V68h-2.5v-5.1c0-1.7-0.7-2.6-2.2-2.6
		c-0.7,0-1.3,0.2-1.8,0.7c-0.5,0.6-0.7,1.3-0.6,2.1V68h-2.5V58h1.7l0.2,1.6c0.7-1.2,2.1-1.8,3.4-1.7c1.5-0.1,2.9,0.6,3.6,1.9
		c0.3-0.6,0.8-1.1,1.4-1.4C282.8,58,283.5,57.8,284.3,57.9L284.3,57.9z"/>
	<path class="st1" d="M77.3,84.2C76,85,75.5,86.7,76.2,88c0.1,0.1,0.2,0.3,0.3,0.4c1.9,2.2,4.2,3.9,6.8,5.2c7.3,3.6,15.9,3,22.6-1.6
		c3.3-2.2,5.8-5.3,7.5-8.9c3.3-7.3,2.2-15.8-2.9-22c-2.5-3.1-5.8-5.4-9.5-6.8c-2.8-1-5.7-1.5-8.6-1.3c-1.5,0.1-2.7,1.4-2.6,3
		c0,0.1,0,0.3,0.1,0.4l0,0c0.4,1.7,1.9,2.8,3.6,2.8c1.8,0,3.6,0.4,5.3,1c2.6,1,5,2.6,6.8,4.8c1.8,2.2,2.9,4.8,3.2,7.5
		c0.4,2.8-0.1,5.6-1.2,8.1c-1.2,2.6-3,4.7-5.3,6.3c-4.8,3.3-10.9,3.7-16.1,1.1c-1.6-0.8-3-1.8-4.2-3.1
		C80.8,83.8,78.9,83.4,77.3,84.2L77.3,84.2z"/>
	<path class="st1" d="M87.2,40L87.2,40c3.3,0,6,2.7,6,6v37l0,0c-3.3,0-6-2.7-6-6V40z"/>
</g>
<g class="st3">
	<circle class="st1" cx="29" cy="68" r="2"/>
	<circle class="st1" cx="48" cy="68" r="2"/>
	<circle class="st1" cx="67" cy="68" r="2"/>
	<circle class="st1" cx="86" cy="68" r="2"/>
	<circle class="st1" cx="105" cy="68" r="2"/>
	<circle class="st1" cx="29" cy="48" r="2"/>
	<circle class="st1" cx="48" cy="48" r="2"/>
	<circle class="st1" cx="67" cy="48" r="2"/>
	<circle class="st1" cx="86" cy="48" r="2"/>
	<circle class="st1" cx="105" cy="48" r="2"/>
	<circle class="st1" cx="29" cy="28" r="2"/>
	<circle class="st1" cx="48" cy="28" r="2"/>
	<circle class="st1" cx="67" cy="28" r="2"/>
	<circle class="st1" cx="86" cy="28" r="2"/>
	<circle class="st1" cx="105" cy="28" r="2"/>
	<circle class="st1" cx="29" cy="8" r="2"/>
	<circle class="st1" cx="48" cy="8" r="2"/>
	<circle class="st1" cx="67" cy="8" r="2"/>
	<circle class="st1" cx="86" cy="8" r="2"/>
	<circle class="st1" cx="105" cy="8" r="2"/>
</g>
<g class="st3">
	<circle class="st1" cx="362" cy="133" r="1"/>
	<circle class="st1" cx="371" cy="133" r="1"/>
	<circle class="st1" cx="380" cy="133" r="1"/>
	<circle class="st1" cx="389" cy="133" r="1"/>
	<circle class="st1" cx="398" cy="133" r="1"/>
	<circle class="st1" cx="362" cy="124" r="1"/>
	<circle class="st1" cx="371" cy="124" r="1"/>
	<circle class="st1" cx="380" cy="124" r="1"/>
	<circle class="st1" cx="389" cy="124" r="1"/>
	<circle class="st1" cx="398" cy="124" r="1"/>
	<circle class="st1" cx="362" cy="115" r="1"/>
	<circle class="st1" cx="371" cy="115" r="1"/>
	<circle class="st1" cx="380" cy="115" r="1"/>
	<circle class="st1" cx="389" cy="115" r="1"/>
	<circle class="st1" cx="398" cy="115" r="1"/>
	<circle class="st1" cx="362" cy="106" r="1"/>
	<circle class="st1" cx="371" cy="106" r="1"/>
	<circle class="st1" cx="380" cy="106" r="1"/>
	<circle class="st1" cx="389" cy="106" r="1"/>
	<circle class="st1" cx="398" cy="106" r="1"/>
</g>
</svg>
