<svg id="Слой_1" data-name="Слой 1" xmlns="http://www.w3.org/2000/svg" xmlns:xlink="http://www.w3.org/1999/xlink" viewBox="0 0 74 70"><defs><style>.cls-1{fill:url(#Безымянный_градиент_19);}.cls-2{opacity:0.15;}.cls-3,.cls-4{fill:#fff;}.cls-4{fill-rule:evenodd;}</style><linearGradient id="Безымянный_градиент_19" x1="-1.73" y1="63.85" x2="75.06" y2="6.27" gradientUnits="userSpaceOnUse"><stop offset="0.19" stop-color="#b139fe"/><stop offset="0.8" stop-color="#1e61eb"/></linearGradient></defs><path class="cls-1" d="M72.13,6c-10.65,23.24-10.82,37.7-.48,58.1a4.19,4.19,0,0,1-2.75,6h-64a4,4,0,0,1-4-3.59,1.67,1.67,0,0,1,0-.32v-62a1.67,1.67,0,0,1,0-.32,4,4,0,0,1,4-3.59H69.31A4.11,4.11,0,0,1,72.13,6Z"/><g class="cls-2"><circle class="cls-3" cx="8.29" cy="35.15" r="1.07"/><circle class="cls-3" cx="17.94" cy="35.15" r="1.07"/><circle class="cls-3" cx="27.58" cy="35.15" r="1.07"/><circle class="cls-3" cx="37.23" cy="35.15" r="1.07"/><circle class="cls-3" cx="46.88" cy="35.15" r="1.07"/><circle class="cls-3" cx="8.29" cy="25.5" r="1.07"/><circle class="cls-3" cx="17.94" cy="25.5" r="1.07"/><circle class="cls-3" cx="27.58" cy="25.5" r="1.07"/><circle class="cls-3" cx="37.23" cy="25.5" r="1.07"/><circle class="cls-3" cx="46.88" cy="25.5" r="1.07"/><circle class="cls-3" cx="8.29" cy="15.86" r="1.07"/><circle class="cls-3" cx="17.94" cy="15.86" r="1.07"/><circle class="cls-3" cx="27.58" cy="15.86" r="1.07"/><circle class="cls-3" cx="37.23" cy="15.86" r="1.07"/><circle class="cls-3" cx="46.88" cy="15.86" r="1.07"/><circle class="cls-3" cx="8.29" cy="6.21" r="1.07"/><circle class="cls-3" cx="17.94" cy="6.21" r="1.07"/><circle class="cls-3" cx="27.58" cy="6.21" r="1.07"/><circle class="cls-3" cx="37.23" cy="6.21" r="1.07"/><circle class="cls-3" cx="46.88" cy="6.21" r="1.07"/><circle class="cls-3" cx="17.94" cy="64.09" r="1.07"/><circle class="cls-3" cx="27.58" cy="64.09" r="1.07"/><circle class="cls-3" cx="37.23" cy="64.09" r="1.07"/><circle class="cls-3" cx="46.88" cy="64.09" r="1.07"/><circle class="cls-3" cx="56.52" cy="64.09" r="1.07"/><circle class="cls-3" cx="17.94" cy="54.45" r="1.07"/><circle class="cls-3" cx="27.58" cy="54.45" r="1.07"/><circle class="cls-3" cx="37.23" cy="54.45" r="1.07"/><circle class="cls-3" cx="46.88" cy="54.45" r="1.07"/><circle class="cls-3" cx="56.52" cy="54.45" r="1.07"/><circle class="cls-3" cx="17.94" cy="44.8" r="1.07"/><circle class="cls-3" cx="27.58" cy="44.8" r="1.07"/><circle class="cls-3" cx="37.23" cy="44.8" r="1.07"/><circle class="cls-3" cx="46.88" cy="44.8" r="1.07"/><circle class="cls-3" cx="56.52" cy="44.8" r="1.07"/><circle class="cls-3" cx="17.94" cy="35.15" r="1.07"/><circle class="cls-3" cx="27.58" cy="35.15" r="1.07"/><circle class="cls-3" cx="37.23" cy="35.15" r="1.07"/><circle class="cls-3" cx="46.88" cy="35.15" r="1.07"/><circle class="cls-3" cx="56.52" cy="35.15" r="1.07"/></g><path class="cls-4" d="M28.22,24.16h11a3,3,0,0,1,3,3V45a1.1,1.1,0,0,1-1.82.83l-2.68-2.3-2.79,2.39A1.11,1.11,0,0,1,33.6,46l-3.8-2.54L27,45.79A1.1,1.1,0,0,1,25.22,45V27.16A3,3,0,0,1,28.22,24.16Zm10.22,17.3L40.22,43V27.16a1,1,0,0,0-1-1h-11a1,1,0,0,0-1,1V43L29,41.45a1.11,1.11,0,0,1,1.33-.08l3.8,2.54L37,41.46A1.12,1.12,0,0,1,38.44,41.46Z"/><path class="cls-4" d="M28.22,24.16h11a3,3,0,0,1,3,3V45a1.1,1.1,0,0,1-1.82.83l-2.68-2.3-2.79,2.39A1.11,1.11,0,0,1,33.6,46l-3.8-2.54L27,45.79A1.1,1.1,0,0,1,25.22,45V27.16A3,3,0,0,1,28.22,24.16Zm10.22,17.3L40.22,43V27.16a1,1,0,0,0-1-1h-11a1,1,0,0,0-1,1V43L29,41.45a1.11,1.11,0,0,1,1.33-.08l3.8,2.54L37,41.46A1.12,1.12,0,0,1,38.44,41.46Z"/><path class="cls-3" d="M29.22,30.16h7a1,1,0,0,0,0-2h-7a1,1,0,0,0,0,2Z"/><path class="cls-3" d="M29.22,30.16h7a1,1,0,0,0,0-2h-7a1,1,0,0,0,0,2Z"/><path class="cls-3" d="M29.22,34.16h4a1,1,0,0,0,0-2h-4a1,1,0,0,0,0,2Z"/><path class="cls-3" d="M29.22,34.16h4a1,1,0,0,0,0-2h-4a1,1,0,0,0,0,2Z"/><path class="cls-3" d="M37.22,36.16h-8a1,1,0,0,0,0,2h8a1,1,0,0,0,0-2Z"/><path class="cls-3" d="M37.22,36.16h-8a1,1,0,0,0,0,2h8a1,1,0,0,0,0-2Z"/></svg>