<svg id="Слой_1" data-name="Слой 1" xmlns="http://www.w3.org/2000/svg" xmlns:xlink="http://www.w3.org/1999/xlink" viewBox="0 0 74 70"><defs><style>.cls-1{fill:url(#Безымянный_градиент_19);}.cls-2{opacity:0.15;}.cls-3,.cls-4{fill:#fff;}.cls-4{fill-rule:evenodd;}</style><linearGradient id="Безымянный_градиент_19" x1="-1.73" y1="63.85" x2="75.06" y2="6.27" gradientUnits="userSpaceOnUse"><stop offset="0.19" stop-color="#b139fe"/><stop offset="0.8" stop-color="#1e61eb"/></linearGradient></defs><path class="cls-1" d="M72.13,6c-10.65,23.24-10.82,37.7-.48,58.1a4.19,4.19,0,0,1-2.75,6h-64a4,4,0,0,1-4-3.59,1.67,1.67,0,0,1,0-.32v-62a1.67,1.67,0,0,1,0-.32,4,4,0,0,1,4-3.59H69.31A4.11,4.11,0,0,1,72.13,6Z"/><g class="cls-2"><circle class="cls-3" cx="8.29" cy="35.15" r="1.07"/><circle class="cls-3" cx="17.94" cy="35.15" r="1.07"/><circle class="cls-3" cx="27.58" cy="35.15" r="1.07"/><circle class="cls-3" cx="37.23" cy="35.15" r="1.07"/><circle class="cls-3" cx="46.88" cy="35.15" r="1.07"/><circle class="cls-3" cx="8.29" cy="25.5" r="1.07"/><circle class="cls-3" cx="17.94" cy="25.5" r="1.07"/><circle class="cls-3" cx="27.58" cy="25.5" r="1.07"/><circle class="cls-3" cx="37.23" cy="25.5" r="1.07"/><circle class="cls-3" cx="46.88" cy="25.5" r="1.07"/><circle class="cls-3" cx="8.29" cy="15.86" r="1.07"/><circle class="cls-3" cx="17.94" cy="15.86" r="1.07"/><circle class="cls-3" cx="27.58" cy="15.86" r="1.07"/><circle class="cls-3" cx="37.23" cy="15.86" r="1.07"/><circle class="cls-3" cx="46.88" cy="15.86" r="1.07"/><circle class="cls-3" cx="8.29" cy="6.21" r="1.07"/><circle class="cls-3" cx="17.94" cy="6.21" r="1.07"/><circle class="cls-3" cx="27.58" cy="6.21" r="1.07"/><circle class="cls-3" cx="37.23" cy="6.21" r="1.07"/><circle class="cls-3" cx="46.88" cy="6.21" r="1.07"/><circle class="cls-3" cx="17.94" cy="64.09" r="1.07"/><circle class="cls-3" cx="27.58" cy="64.09" r="1.07"/><circle class="cls-3" cx="37.23" cy="64.09" r="1.07"/><circle class="cls-3" cx="46.88" cy="64.09" r="1.07"/><circle class="cls-3" cx="56.52" cy="64.09" r="1.07"/><circle class="cls-3" cx="17.94" cy="54.45" r="1.07"/><circle class="cls-3" cx="27.58" cy="54.45" r="1.07"/><circle class="cls-3" cx="37.23" cy="54.45" r="1.07"/><circle class="cls-3" cx="46.88" cy="54.45" r="1.07"/><circle class="cls-3" cx="56.52" cy="54.45" r="1.07"/><circle class="cls-3" cx="17.94" cy="44.8" r="1.07"/><circle class="cls-3" cx="27.58" cy="44.8" r="1.07"/><circle class="cls-3" cx="37.23" cy="44.8" r="1.07"/><circle class="cls-3" cx="46.88" cy="44.8" r="1.07"/><circle class="cls-3" cx="56.52" cy="44.8" r="1.07"/><circle class="cls-3" cx="17.94" cy="35.15" r="1.07"/><circle class="cls-3" cx="27.58" cy="35.15" r="1.07"/><circle class="cls-3" cx="37.23" cy="35.15" r="1.07"/><circle class="cls-3" cx="46.88" cy="35.15" r="1.07"/><circle class="cls-3" cx="56.52" cy="35.15" r="1.07"/></g><path class="cls-4" d="M25.72,36.15a3,3,0,0,1-3-3v-4a3,3,0,0,1,3-3h4a3,3,0,0,1,3,3v4a3,3,0,0,1-3,3Zm-1-3a1,1,0,0,0,1,1h4a1,1,0,0,0,1-1v-4a1,1,0,0,0-1-1h-4a1,1,0,0,0-1,1Z"/><path class="cls-4" d="M37.72,36.15a3,3,0,0,1-3-3v-4a3,3,0,0,1,3-3h4a3,3,0,0,1,3,3v4a3,3,0,0,1-3,3Zm-1-3a1,1,0,0,0,1,1h4a1,1,0,0,0,1-1v-4a1,1,0,0,0-1-1h-4a1,1,0,0,0-1,1Z"/><path class="cls-4" d="M23.72,39.15a1,1,0,0,1,1-1h6a1,1,0,1,1,0,2h-6A1,1,0,0,1,23.72,39.15Z"/><path class="cls-4" d="M23.72,43.15a1,1,0,0,1,1-1h4a1,1,0,1,1,0,2h-4A1,1,0,0,1,23.72,43.15Z"/><path class="cls-4" d="M35.72,39.15a1,1,0,0,1,1-1h6a1,1,0,0,1,0,2h-6A1,1,0,0,1,35.72,39.15Z"/><path class="cls-4" d="M35.72,43.15a1,1,0,0,1,1-1h4a1,1,0,0,1,0,2h-4A1,1,0,0,1,35.72,43.15Z"/></svg>