<svg width="184" height="184" viewBox="0 0 184 184" fill="none" xmlns="http://www.w3.org/2000/svg">
<rect width="184" height="184" rx="92" fill="url(#paint0_linear_3677:28)"/>
<path d="M63.28 90.72C67.52 90.72 70.4533 92.52 72.08 96.12C72.48 97 72.7067 98.0667 72.76 99.32C72.8133 100.547 72.6933 101.573 72.4 102.4H58.44C58.44 103.707 58.9067 104.733 59.84 105.48C60.8 106.227 61.9867 106.6 63.4 106.6C65.6133 106.6 67.6267 106.133 69.44 105.2L72.12 108.12C69.32 110.2 66.4133 111.24 63.4 111.24C60.3867 111.24 57.9333 110.28 56.04 108.36C54.1467 106.413 53.2 103.96 53.2 101C53.2 98.0667 54.12 95.6267 55.96 93.68C57.8 91.7067 60.24 90.72 63.28 90.72ZM63.28 95.36C61.9733 95.36 60.88 95.7467 60 96.52C59.1467 97.2933 58.6933 98.1867 58.64 99.2H67.8C67.8 98.6133 67.64 98.08 67.32 97.6C66.52 96.1067 65.1733 95.36 63.28 95.36ZM95.0691 111H91.6691L91.3891 108.16C89.7624 110.213 87.5491 111.24 84.7491 111.24C81.9491 111.24 79.6157 110.253 77.7491 108.28C75.9091 106.307 74.9891 103.88 74.9891 101C74.9891 98.12 75.9091 95.6933 77.7491 93.72C79.6157 91.72 81.9491 90.72 84.7491 90.72C87.5491 90.72 89.7624 91.76 91.3891 93.84L91.6691 91H95.0691V111ZM85.2291 106.32C86.6157 106.32 87.8157 105.827 88.8291 104.84C89.8691 103.853 90.3891 102.573 90.3891 101C90.3891 99.4267 89.8691 98.1467 88.8291 97.16C87.8157 96.1467 86.6157 95.64 85.2291 95.64C83.8424 95.64 82.6291 96.1467 81.5891 97.16C80.5757 98.1467 80.0691 99.4267 80.0691 101C80.0691 102.573 80.5757 103.853 81.5891 104.84C82.6024 105.827 83.8157 106.32 85.2291 106.32ZM143.302 82.76C147.462 82.76 150.982 84.3067 153.862 87.4L150.262 90.72C148.422 88.88 146.102 87.96 143.302 87.96C140.822 87.96 138.742 88.8133 137.062 90.52C135.409 92.2 134.582 94.3733 134.582 97.04C134.582 99.68 135.409 101.853 137.062 103.56C138.742 105.267 140.822 106.12 143.302 106.12C145.196 106.12 146.876 105.6 148.342 104.56V99.72H143.222V95.56H153.862V106.68C150.982 109.773 147.462 111.32 143.302 111.32C139.356 111.32 135.996 109.933 133.222 107.16C130.449 104.36 129.062 100.987 129.062 97.04C129.062 93.0933 130.449 89.7333 133.222 86.96C135.996 84.16 139.356 82.76 143.302 82.76ZM166.12 90.72C168.973 90.72 171.4 91.7333 173.4 93.76C175.4 95.76 176.4 98.1733 176.4 101C176.4 103.827 175.4 106.24 173.4 108.24C171.4 110.24 168.973 111.24 166.12 111.24C163.266 111.24 160.84 110.24 158.84 108.24C156.866 106.24 155.88 103.827 155.88 101C155.88 98.1467 156.88 95.72 158.88 93.72C160.88 91.72 163.293 90.72 166.12 90.72ZM169.72 97.16C168.706 96.1467 167.506 95.64 166.12 95.64C164.733 95.64 163.52 96.1467 162.48 97.16C161.466 98.1467 160.96 99.4267 160.96 101C160.96 102.573 161.466 103.853 162.48 104.84C163.493 105.827 164.706 106.32 166.12 106.32C167.506 106.32 168.706 105.827 169.72 104.84C170.76 103.853 171.28 102.573 171.28 101C171.28 99.4267 170.76 98.1467 169.72 97.16Z" fill="white"/>
<path d="M63.28 90.72C67.52 90.72 70.4533 92.52 72.08 96.12C72.48 97 72.7067 98.0667 72.76 99.32C72.8133 100.547 72.6933 101.573 72.4 102.4H58.44C58.44 103.707 58.9067 104.733 59.84 105.48C60.8 106.227 61.9867 106.6 63.4 106.6C65.6133 106.6 67.6267 106.133 69.44 105.2L72.12 108.12C69.32 110.2 66.4133 111.24 63.4 111.24C60.3867 111.24 57.9333 110.28 56.04 108.36C54.1467 106.413 53.2 103.96 53.2 101C53.2 98.0667 54.12 95.6267 55.96 93.68C57.8 91.7067 60.24 90.72 63.28 90.72ZM63.28 95.36C61.9733 95.36 60.88 95.7467 60 96.52C59.1467 97.2933 58.6933 98.1867 58.64 99.2H67.8C67.8 98.6133 67.64 98.08 67.32 97.6C66.52 96.1067 65.1733 95.36 63.28 95.36ZM95.0691 111H91.6691L91.3891 108.16C89.7624 110.213 87.5491 111.24 84.7491 111.24C81.9491 111.24 79.6157 110.253 77.7491 108.28C75.9091 106.307 74.9891 103.88 74.9891 101C74.9891 98.12 75.9091 95.6933 77.7491 93.72C79.6157 91.72 81.9491 90.72 84.7491 90.72C87.5491 90.72 89.7624 91.76 91.3891 93.84L91.6691 91H95.0691V111ZM85.2291 106.32C86.6157 106.32 87.8157 105.827 88.8291 104.84C89.8691 103.853 90.3891 102.573 90.3891 101C90.3891 99.4267 89.8691 98.1467 88.8291 97.16C87.8157 96.1467 86.6157 95.64 85.2291 95.64C83.8424 95.64 82.6291 96.1467 81.5891 97.16C80.5757 98.1467 80.0691 99.4267 80.0691 101C80.0691 102.573 80.5757 103.853 81.5891 104.84C82.6024 105.827 83.8157 106.32 85.2291 106.32ZM143.302 82.76C147.462 82.76 150.982 84.3067 153.862 87.4L150.262 90.72C148.422 88.88 146.102 87.96 143.302 87.96C140.822 87.96 138.742 88.8133 137.062 90.52C135.409 92.2 134.582 94.3733 134.582 97.04C134.582 99.68 135.409 101.853 137.062 103.56C138.742 105.267 140.822 106.12 143.302 106.12C145.196 106.12 146.876 105.6 148.342 104.56V99.72H143.222V95.56H153.862V106.68C150.982 109.773 147.462 111.32 143.302 111.32C139.356 111.32 135.996 109.933 133.222 107.16C130.449 104.36 129.062 100.987 129.062 97.04C129.062 93.0933 130.449 89.7333 133.222 86.96C135.996 84.16 139.356 82.76 143.302 82.76ZM166.12 90.72C168.973 90.72 171.4 91.7333 173.4 93.76C175.4 95.76 176.4 98.1733 176.4 101C176.4 103.827 175.4 106.24 173.4 108.24C171.4 110.24 168.973 111.24 166.12 111.24C163.266 111.24 160.84 110.24 158.84 108.24C156.866 106.24 155.88 103.827 155.88 101C155.88 98.1467 156.88 95.72 158.88 93.72C160.88 91.72 163.293 90.72 166.12 90.72ZM169.72 97.16C168.706 96.1467 167.506 95.64 166.12 95.64C164.733 95.64 163.52 96.1467 162.48 97.16C161.466 98.1467 160.96 99.4267 160.96 101C160.96 102.573 161.466 103.853 162.48 104.84C163.493 105.827 164.706 106.32 166.12 106.32C167.506 106.32 168.706 105.827 169.72 104.84C170.76 103.853 171.28 102.573 171.28 101C171.28 99.4267 170.76 98.1467 169.72 97.16Z" fill="white"/>
<path d="M99 110V111H100H104.686H105.686V110V84V83H104.686H100H99V84V110ZM118.994 110.537L119.289 111H119.838H125H126.837L125.84 109.457L121.446 102.66L121.446 102.66C120.91 101.832 120.379 101.142 119.85 100.611C119.767 100.529 119.684 100.449 119.599 100.373C120.177 99.8153 120.729 99.0893 121.264 98.2472L125.361 91.9755L126.372 90.4286H124.524H119.362H118.817L118.522 90.8859L115.666 95.3059L115.666 95.3059L115.663 95.3099C115.091 96.2047 114.66 96.6917 114.377 96.8991C114.178 97.045 113.787 97.1886 113.064 97.1886H112.929V84V83H111.929H107.28H106.28V84V110V111H107.28H111.929H112.929V110V103.72H113.211C113.933 103.72 114.324 103.864 114.524 104.01L114.534 104.017L114.544 104.024C114.84 104.23 115.278 104.71 115.846 105.598C115.846 105.598 115.846 105.599 115.846 105.599L118.994 110.537Z" stroke="white" stroke-width="2"/>
<path d="M11.0978 108.2C9.58227 109.124 9.10706 111.132 10.2756 112.468C12.1474 114.609 14.4384 116.377 17.0253 117.663C20.5914 119.436 24.5847 120.225 28.5754 119.945C32.5661 119.665 36.4031 118.327 39.6735 116.074C42.9439 113.822 45.5238 110.74 47.1357 107.162C48.7475 103.583 49.3303 99.6424 48.8212 95.7642C48.312 91.8859 46.7304 88.2168 44.2463 85.1516C41.7623 82.0864 38.47 79.7413 34.7237 78.3686C31.9631 77.357 29.0331 76.9017 26.1083 77.0177C24.3773 77.0863 23.2487 78.7482 23.5719 80.4502C23.8914 82.1324 25.5145 83.2097 27.2266 83.234C29.0158 83.2594 30.795 83.585 32.4848 84.2042C35.1451 85.179 37.483 86.8444 39.247 89.021C41.011 91.1977 42.1341 93.8032 42.4957 96.5572C42.8572 99.3113 42.4434 102.11 41.2988 104.651C40.1542 107.192 38.3221 109.38 35.9997 110.98C33.6773 112.579 30.9526 113.53 28.1187 113.728C25.2848 113.927 22.4491 113.367 19.9167 112.108C18.3244 111.317 16.8899 110.268 15.6703 109.012C14.469 107.776 12.5696 107.302 11.0978 108.2Z" fill="white"/>
<path d="M21 64C24.3137 64 27 66.6863 27 70V107C23.6863 107 21 104.314 21 101V64Z" fill="white"/>
<defs>
<linearGradient id="paint0_linear_3677:28" x1="41.8182" y1="155.564" x2="137.164" y2="28.4364" gradientUnits="userSpaceOnUse">
<stop stop-color="#B139FE"/>
<stop offset="1" stop-color="#1E61EB"/>
</linearGradient>
</defs>
</svg>
