<svg width="17" height="19" viewBox="0 0 17 19" fill="none" xmlns="http://www.w3.org/2000/svg">
<path fill-rule="evenodd" clip-rule="evenodd" d="M11.645 9.11484C13.3576 7.77329 14.0307 5.49305 13.3211 3.43653C12.6115 1.38 10.6755 0 8.5 0C6.3245 0 4.3885 1.38 3.67892 3.43653C2.96933 5.49305 3.64239 7.77329 5.355 9.11484C2.12463 10.4014 0.00358828 13.5257 0 17.0028V17.8528C0 18.3223 0.380558 18.7028 0.85 18.7028C1.31944 18.7028 1.7 18.3223 1.7 17.8528V17.0028C1.7 13.2473 4.74446 10.2028 8.5 10.2028C12.2555 10.2028 15.3 13.2473 15.3 17.0028V17.8528C15.3 18.3223 15.6806 18.7028 16.15 18.7028C16.6194 18.7028 17 18.3223 17 17.8528V17.0028C16.9964 13.5257 14.8754 10.4014 11.645 9.11484ZM5.09991 5.10285C5.09991 3.22508 6.62214 1.70285 8.49991 1.70285C10.3777 1.70285 11.8999 3.22508 11.8999 5.10285C11.8999 6.98062 10.3777 8.50285 8.49991 8.50285C7.59817 8.50285 6.73337 8.14464 6.09574 7.50701C5.45812 6.86939 5.09991 6.00458 5.09991 5.10285Z" fill="white"/>
</svg>
