<svg width="89" height="90" viewBox="0 0 89 90" fill="none" xmlns="http://www.w3.org/2000/svg">
<path d="M18.2605 29.9143C17.208 29.3067 15.8549 29.6645 15.3198 30.7556C11.8704 37.7897 11.0676 45.8607 13.1081 53.4757C15.339 61.8015 20.7859 68.9001 28.2507 73.2099C35.7154 77.5197 44.5864 78.6876 52.9123 76.4567C60.5272 74.4162 67.1156 69.6855 71.4826 63.1812C72.16 62.1723 71.7933 60.8215 70.7409 60.2139C69.6884 59.6062 68.3496 59.9727 67.6615 60.9744C63.886 66.471 58.2605 70.4675 51.7733 72.2058C44.5748 74.1346 36.905 73.1248 30.4511 69.3987C23.9972 65.6725 19.2878 59.5351 17.359 52.3367C15.6207 45.8494 16.2691 38.9793 19.1414 32.9613C19.6649 31.8646 19.3129 30.5219 18.2605 29.9143Z" fill="#E2E3F3" fill-opacity="0.65"/>
<path d="M74.7996 45.0641C76.0148 45.0641 77.0078 44.0776 76.9256 42.8651C76.3958 35.0488 73.0555 27.6577 67.481 22.0831C61.386 15.9882 53.1195 12.5641 44.5 12.5641C35.8805 12.5641 27.614 15.9882 21.519 22.0831C15.9445 27.6577 12.6042 35.0488 12.0744 42.8651C11.9922 44.0776 12.9852 45.0641 14.2004 45.0641V45.0641C15.4157 45.0641 16.3919 44.0773 16.4869 42.8658C17.0083 36.2178 19.8819 29.944 24.6309 25.195C29.9005 19.9254 37.0476 16.9649 44.5 16.9649C51.9524 16.9649 59.0995 19.9254 64.3691 25.195C69.1181 29.944 71.9917 36.2178 72.5131 42.8658C72.6081 44.0773 73.5843 45.0641 74.7996 45.0641V45.0641Z" fill="url(#paint0_linear_6178:2)"/>
<path d="M44.5 75.3637C44.5 76.5789 45.4865 77.5718 46.699 77.4897C54.5153 76.9599 61.9064 73.6196 67.481 68.0451C73.5759 61.9501 77 53.6836 77 45.0641C77 36.4446 73.5759 28.1781 67.481 22.0831C61.9064 16.5086 54.5153 13.1683 46.699 12.6385C45.4865 12.5563 44.5 13.5492 44.5 14.7645V14.7645C44.5 15.9798 45.4868 16.956 46.6983 17.051C53.3463 17.5724 59.6201 20.446 64.3691 25.195C69.6387 30.4646 72.5992 37.6117 72.5992 45.0641C72.5992 52.5164 69.6387 59.6636 64.3691 64.9332C59.6201 69.6822 53.3462 72.5557 46.6983 73.0772C45.4868 73.1722 44.5 74.1484 44.5 75.3637V75.3637Z" fill="url(#paint1_linear_6178:2)"/>
<defs>
<linearGradient id="paint0_linear_6178:2" x1="26.7727" y1="67.5186" x2="60.4545" y2="22.6095" gradientUnits="userSpaceOnUse">
<stop stop-color="#B139FE"/>
<stop offset="1" stop-color="#1E61EB"/>
</linearGradient>
<linearGradient id="paint1_linear_6178:2" x1="62.2273" y1="22.6095" x2="28.5455" y2="67.5186" gradientUnits="userSpaceOnUse">
<stop stop-color="#B139FE"/>
<stop offset="1" stop-color="#1E61EB"/>
</linearGradient>
</defs>
</svg>
