<svg id="Слой_1" data-name="Слой 1" xmlns="http://www.w3.org/2000/svg" xmlns:xlink="http://www.w3.org/1999/xlink" viewBox="0 0 89 90"><defs><style>.cls-1{fill:#e2e3f3;fill-opacity:0.65;}.cls-2{fill:url(#Безымянный_градиент);}.cls-3{fill:url(#Безымянный_градиент_2);}</style><linearGradient id="Безымянный_градиент" x1="24.38" y1="26.27" x2="58.07" y2="71.18" gradientTransform="matrix(1, 0, 0, -1, 0, 92)" gradientUnits="userSpaceOnUse"><stop offset="0" stop-color="#b139fe"/><stop offset="1" stop-color="#1e61eb"/></linearGradient><linearGradient id="Безымянный_градиент_2" x1="67.21" y1="65.65" x2="33.53" y2="20.74" xlink:href="#Безымянный_градиент"/></defs><path class="cls-1" d="M18.26,29.91a2.09,2.09,0,0,0-2.94.85A32.5,32.5,0,0,0,71.48,63.18a2.09,2.09,0,0,0-.74-3,2.35,2.35,0,0,0-3.08.76A28.1,28.1,0,0,1,19.14,33,2.35,2.35,0,0,0,18.26,29.91Z"/><path class="cls-2" d="M74.8,45.06a2.09,2.09,0,0,0,2.13-2.19,32.5,32.5,0,0,0-64.86,0,2.09,2.09,0,0,0,2.13,2.19h0a2.34,2.34,0,0,0,2.29-2.19,28.09,28.09,0,0,1,56,0,2.34,2.34,0,0,0,2.29,2.19Z"/><path class="cls-3" d="M44.5,75.36a2.09,2.09,0,0,0,2.2,2.13,32.5,32.5,0,0,0,0-64.85,2.09,2.09,0,0,0-2.2,2.12h0a2.34,2.34,0,0,0,2.2,2.29,28.1,28.1,0,0,1,0,56,2.34,2.34,0,0,0-2.2,2.28Z"/></svg>